<?xml version="1.0" encoding="UTF-8"?>
<svg xmlns="http://www.w3.org/2000/svg" xmlns:xlink="http://www.w3.org/1999/xlink" width="60px" height="60px" viewBox="0 0 60 60" version="1.1">
<g id="surface1">
<path style=" stroke:none;fill-rule:nonzero;fill:rgb(94.509804%,96.862745%,100%);fill-opacity:1;" d="M 48.75 60 L 11.25 60 C 5.035156 60 0 54.964844 0 48.75 L 0 11.25 C 0 5.035156 5.035156 0 11.25 0 L 48.75 0 C 54.964844 0 60 5.035156 60 11.25 L 60 48.75 C 60 54.964844 54.964844 60 48.75 60 Z M 48.75 60 "/>
<path style=" stroke:none;fill-rule:nonzero;fill:rgb(18.431373%,53.72549%,98.823529%);fill-opacity:1;" d="M 25.625 33.125 C 25.625 35.195312 23.945312 36.875 21.875 36.875 C 19.804688 36.875 18.125 35.195312 18.125 33.125 C 18.125 31.054688 19.804688 29.375 21.875 29.375 C 23.945312 29.375 25.625 31.054688 25.625 33.125 Z M 25.625 33.125 "/>
<path style=" stroke:none;fill-rule:nonzero;fill:rgb(18.431373%,53.72549%,98.823529%);fill-opacity:1;" d="M 25.3125 38.75 L 18.4375 38.75 C 16.542969 38.753906 15.003906 40.289062 15 42.183594 L 15 44.058594 C 15 44.578125 15.421875 44.996094 15.9375 44.996094 L 27.8125 44.996094 C 28.328125 44.996094 28.75 44.578125 28.75 44.058594 L 28.75 42.183594 C 28.746094 40.289062 27.207031 38.753906 25.3125 38.75 Z M 25.3125 38.75 "/>
<path style=" stroke:none;fill-rule:nonzero;fill:rgb(52.941176%,73.72549%,100%);fill-opacity:1;" d="M 42.816406 15 L 23.4375 15 C 22.230469 15.007812 21.253906 15.980469 21.25 17.1875 L 21.25 27.539062 C 21.457031 27.511719 21.664062 27.5 21.871094 27.5 C 24.734375 27.503906 27.140625 29.65625 27.460938 32.5 L 30 32.5 L 30 36.5625 C 30 36.972656 30.265625 37.339844 30.660156 37.460938 C 30.753906 37.484375 30.84375 37.5 30.9375 37.5 C 31.25 37.5 31.539062 37.34375 31.710938 37.085938 L 34.863281 32.5 L 42.816406 32.5 C 44.023438 32.492188 44.996094 31.515625 45.003906 30.3125 L 45.003906 17.1875 C 44.996094 15.980469 44.019531 15.007812 42.816406 15 Z M 41.042969 20.285156 L 36.355469 25.910156 C 36.019531 26.308594 35.429688 26.363281 35.027344 26.039062 L 31.914062 23.4375 L 27.828125 27.25 C 27.65625 27.410156 27.425781 27.5 27.191406 27.5 C 26.804688 27.5 26.457031 27.261719 26.316406 26.902344 C 26.175781 26.542969 26.269531 26.136719 26.554688 25.871094 L 31.238281 21.5 C 31.582031 21.175781 32.109375 21.160156 32.472656 21.460938 L 35.496094 23.988281 L 39.585938 19.089844 C 39.796875 18.816406 40.136719 18.679688 40.476562 18.734375 C 40.816406 18.785156 41.101562 19.019531 41.21875 19.34375 C 41.335938 19.667969 41.265625 20.03125 41.035156 20.289062 Z M 41.042969 20.285156 "/>
</g>
</svg>
